<?xml version="1.0" encoding="utf-8"?>
<!-- Generator: Adobe Illustrator 19.0.1, SVG Export Plug-In . SVG Version: 6.00 Build 0)  -->
<svg version="1.1" id="Layer_1" xmlns="http://www.w3.org/2000/svg" xmlns:xlink="http://www.w3.org/1999/xlink" x="0px" y="0px"
	 viewBox="78 13.1 767.9 767.9" style="enable-background:new 78 13.1 767.9 767.9;" xml:space="preserve">
<style type="text/css">
	.st0{fill:#DBDBDB;}
</style>
<path class="st0" d="M462,781C250.2,781,78,608.8,78,397S250.2,13,462,13c211.7,0,384,172.3,384,384S673.7,781,462,781z
	 M785.8,449.6c-11.2-3.5-101.5-30.5-204.3-14c42.9,117.9,60.4,213.9,63.7,233.8C718.8,619.7,771.2,540.9,785.8,449.6z M590.1,699.4
	c-4.9-28.8-23.9-129.1-70-248.7c-0.7,0.2-1.4,0.5-2.2,0.7c-185,64.5-251.4,192.8-257.3,204.8c55.6,43.4,125.5,69.2,201.3,69.2
	C507.4,725.5,550.7,716.2,590.1,699.4z M218.3,616.8c7.4-12.7,97.4-161.8,266.6-216.4c4.3-1.4,8.6-2.7,12.9-3.9
	c-8.2-18.6-17.2-37.3-26.6-55.7c-163.8,49-322.7,47-337.1,46.7c-0.1,3.3-0.2,6.7-0.2,10C134,481.8,165.9,558.7,218.3,616.8z
	 M140.9,330.4c14.7,0.2,149.8,0.8,303.2-40c-54.3-96.6-113-177.8-121.6-189.7C230.8,144,162.2,228.6,140.9,330.4z M385.1,78.7
	c9.1,12.1,68.6,93.3,122.4,192c116.6-43.7,166-110.1,171.9-118.5C621.5,100.8,545.3,69.6,462,69.6C435.5,69.6,409.8,72.7,385.1,78.7
	z M715.8,190.1c-6.9,9.4-61.9,79.8-183.1,129.3c7.6,15.6,14.9,31.5,21.8,47.5c2.4,5.7,4.8,11.3,7.1,16.9
	c109.1-13.7,217.6,8.3,228.4,10.6C789.2,317,761.5,245.9,715.8,190.1z"/>
</svg>
