<?xml version="1.0" encoding="utf-8"?>
<!-- Generator: Adobe Illustrator 19.0.1, SVG Export Plug-In . SVG Version: 6.00 Build 0)  -->
<svg version="1.1" id="Capa_1" xmlns="http://www.w3.org/2000/svg" xmlns:xlink="http://www.w3.org/1999/xlink" x="0px" y="0px"
	 viewBox="-90 181.9 430.1 430.1" style="enable-background:new -90 181.9 430.1 430.1;" xml:space="preserve">
<style type="text/css">
	.st0{fill:#DBDBDB;}
</style>
<g>
	<path id="Behance" class="st0" d="M298.4,301H190.7v-26.8h107.8L298.4,301C298.4,301,298.4,301,298.4,301z M118.9,410.8
		c7,10.8,10.4,23.8,10.4,39.2c0,15.9-3.9,30.1-11.9,42.7c-5.1,8.3-11.4,15.4-18.9,21c-8.5,6.5-18.6,11-30.2,13.4
		c-11.6,2.4-24.2,3.6-37.8,3.6H-90V263.1H39.3c32.6,0.5,55.7,10,69.3,28.5c8.2,11.4,12.2,25,12.2,40.9c0,16.4-4.1,29.5-12.4,39.4
		c-4.6,5.6-11.4,10.6-20.4,15.2C101.7,392.1,112,400,118.9,410.8z M-28.3,368.6h56.6c11.6,0,21-2.2,28.3-6.6
		c7.2-4.4,10.9-12.3,10.9-23.5c0-12.4-4.8-20.7-14.4-24.7c-8.2-2.8-18.8-4.2-31.6-4.2h-49.8V368.6z M73,446.2
		c0-13.9-5.7-23.5-17-28.7c-6.3-2.9-15.3-4.4-26.8-4.5h-57.4v71.3h56.6c11.6,0,20.6-1.5,27.1-4.7C67.1,473.7,73,462.6,73,446.2z
		 M338.4,402.6c1.3,8.8,1.9,21.5,1.7,38.1H200.5c0.8,19.3,7.4,32.7,20,40.4c7.6,4.8,16.8,7.2,27.6,7.2c11.4,0,20.7-2.9,27.8-8.8
		c3.9-3.1,7.3-7.6,10.3-13.2h51.2c-1.3,11.4-7.5,22.9-18.6,34.6c-17.2,18.6-41.2,28-72.1,28c-25.5,0-48-7.9-67.5-23.6
		c-19.5-15.8-29.2-41.3-29.2-76.8c0-33.3,8.8-58.7,26.4-76.4c17.7-17.8,40.5-26.6,68.6-26.6c16.7,0,31.7,3,45.1,9
		c13.4,6,24.4,15.4,33.1,28.4C331,374.4,336.1,387.6,338.4,402.6z M288.1,407.6c-0.9-13.3-5.4-23.4-13.4-30.3
		c-7.9-6.9-17.9-10.4-29.7-10.4c-12.9,0-22.8,3.7-29.9,11c-7.1,7.3-11.5,17.2-13.4,29.7L288.1,407.6L288.1,407.6z"/>
</g>
</svg>
