<?xml version="1.0" encoding="utf-8"?>
<!-- Generator: Adobe Illustrator 19.0.1, SVG Export Plug-In . SVG Version: 6.00 Build 0)  -->
<svg version="1.1" id="Capa_1" xmlns="http://www.w3.org/2000/svg" xmlns:xlink="http://www.w3.org/1999/xlink" x="0px" y="0px"
	 viewBox="-62 153.6 486.4 486.4" style="enable-background:new -62 153.6 486.4 486.4;" xml:space="preserve">
<style type="text/css">
	.st0{fill:#DBDBDB;}
</style>
<g>
	<g>
		<path class="st0" d="M402.4,153.6H-40.1c-12.1,0-21.9,9.8-21.9,21.9v442.6c0,12.1,9.8,21.9,21.9,21.9h442.5c12.1,0,22-9.8,22-21.9
			V175.5C424.4,163.4,414.5,153.6,402.4,153.6z M181.2,311.9c46.9,0,84.9,38,84.9,84.9s-38,84.9-84.9,84.9s-84.9-38-84.9-84.9
			S134.3,311.9,181.2,311.9z M363.6,579.2H-1.2V366.4h40c-2.1,9.8-3.3,20-3.3,30.4c0,80.3,65.4,145.7,145.7,145.7
			c80.3,0,145.7-65.3,145.7-145.7c0-10.4-1.2-20.6-3.3-30.4h40L363.6,579.2L363.6,579.2z M363.6,305.6h-91.2v-91.2h91.2V305.6z"/>
	</g>
</g>
</svg>
